<svg xmlns="http://www.w3.org/2000/svg" xmlns:xlink="http://www.w3.org/1999/xlink" width="512.997" height="463.269" viewBox="0 0 512.997 463.269">
  <defs>
    <clipPath id="clip-path">
      <rect id="Rectángulo_195" data-name="Rectángulo 195" width="328.46" height="329.214" fill="none"/>
    </clipPath>
  </defs>
  <g id="Grupo_1237" data-name="Grupo 1237" transform="translate(-107.852 -21.952)">
    <g id="Grupo_275" data-name="Grupo 275" transform="translate(108.849 69.42)">
      <path id="Unión_1" data-name="Unión 1" d="M170.318,370.5,0,405.883,86.388,257.552l-39.632-5.545,51.688-88.185C108.162,71.749,186.055,0,280.7,0,381.928,0,463.99,82.057,463.99,183.28A183.285,183.285,0,0,1,280.7,366.566h-.677L165.455,415.009Z" transform="translate(0 0)" fill="#ea0f63" stroke="rgba(0,0,0,0)" stroke-miterlimit="10" stroke-width="1"/>
    </g>
    <g id="Grupo_272" data-name="Grupo 272" transform="translate(186.629 21.952)">
      <g id="Grupo_273" data-name="Grupo 273" transform="translate(0 0)">
        <path id="Trazado_70" data-name="Trazado 70" d="M393.35,196.676c0,108.62-88.056,196.675-196.675,196.675S0,305.3,0,196.676,88.056,0,196.675,0,393.35,88.057,393.35,196.676" transform="translate(0 42.667)" fill="#ea0f63"/>
        <g id="Grupo_274" data-name="Grupo 274" transform="translate(105.76)">
          <g id="Grupo_273-2" data-name="Grupo 273" clip-path="url(#clip-path)">
            <path id="Trazado_76" data-name="Trazado 76" d="M74.267,141.09a.661.661,0,0,0,.135-.11,21.019,21.019,0,0,0,4.576-5.387,45.846,45.846,0,0,0,3.9-7.862,46.233,46.233,0,0,0,2.772-12.413c.234-2.8.583-6.971.932-11,.462-5.585.918-10.865,1-11.874a69.4,69.4,0,0,1-8.755,7.32c-3.281,2.552-6.685,4.881-10,7.048-.132.082-.272.19-.41.278-1.694,1.1-3.424,2.153-5.161,3.184-1.152.7-2.315,1.378-3.468,2.018-.159.077-.294.173-.443.253-3.193,1.752-6.437,3.391-9.74,4.859-.085.036-.146.066-.253.113-3.118,1.364-6.314,2.645-9.608,3.74-.143.039-.316.137-.481.2-.061.022-.135.041-.171.055,0,.017.517.682.971,1.268.143.192.278.379.4.536s.269.3.4.448c.171.187.322.393.5.6,2.343,2.736,4.664,5.481,7.029,8.219.151.184.349.4.5.586.019.033.038.033.038.05.473.522.795.984.423,1.768-.685,1.493-1.529,3.325-2.431,5.274-2.1,4.6-4.5,9.894-5.843,12.844a1.049,1.049,0,0,0-.1.457.98.98,0,0,0,.289.71.835.835,0,0,0,.33.236.987.987,0,0,0,.751.041l.063-.011c1.188-.454,2.357-.9,3.555-1.367,6.316-2.412,12.63-4.809,18.861-7.5,2.467-1.034,4.9-2.137,7.334-3.289a13.2,13.2,0,0,0,2.065-1.249c0-.027.038-.027.038-.047" transform="translate(68.402 161.762)" fill="#c81661"/>
            <path id="Trazado_77" data-name="Trazado 77" d="M50.2,89.925c2.09-3.943,4.413-7.771,6.864-11.519q4.512-6.826,9.726-13.213c.459-.577.94-1.144,1.4-1.724.168-.173.305-.36.465-.522.429-.5.828-1.009,1.248-1.493.039-.047.082-.107.168-.2.025-.05.041-.083.074-.138.1-.129.236-.256.344-.39l.052-.058a1.179,1.179,0,0,0,.179-.335l-.036.006a.7.7,0,0,1-.192.014c-.118.011-.278.036-.415.049-.223.014-.448.028-.564.022-2.156.151-4.578.264-7.081.4-7.611.388-16.062.839-21.108,1.515a28.5,28.5,0,0,0-2.885.478c-.632.137-1.246.311-1.875.487-.5.129-.99.256-1.482.41-.6.181-1.2.349-1.818.55-1.02.341-2.029.729-3.033,1.147a31.112,31.112,0,0,0-6.039,3.157,28.71,28.71,0,0,0-5.117,4.345A20.018,20.018,0,0,0,15.619,78.2c-3.523,7.95-9.567,23.313-11.975,28.991-.019.066-.019.14-.036.223a1.087,1.087,0,0,0,.264.932,1.033,1.033,0,0,0,1.081.275l.025,0c.3-.1.6-.206.927-.33a4.276,4.276,0,0,1,2.764-.973c.767-.272,1.548-.553,2.381-.839,1.831-.654,3.773-1.358,5.7-2.051,1.672-.6,3.308-1.207,4.818-1.746,1.1-.407,2.167-.8,3.074-1.152.041-.008.066-.027.093-.033a.6.6,0,0,1,.162-.055,2.457,2.457,0,0,1,2.772.583c.014.025.03.033.03.047,2.709,2.469,5.48,4.878,8.244,7.306,1.075.921,2.156,1.851,3.212,2.8a.616.616,0,0,1,.157.132c.107.1.253.228.407.357a1.041,1.041,0,0,0,.179.151c.247.217.467.4.467.41a1.373,1.373,0,0,0,.179-.424,6.035,6.035,0,0,0,.272-.817c.269-.833.564-1.686.833-2.516a138.954,138.954,0,0,1,6.759-16.1c.577-1.16,1.169-2.318,1.79-3.457" transform="translate(6.288 105.568)" fill="#c81661"/>
            <path id="Trazado_78" data-name="Trazado 78" d="M79.335,80.047c-11.181,12.715-19.617,22.285-23.4,26.585l-.025-.014a3.284,3.284,0,0,1-1.518,1,3.435,3.435,0,0,1-3.795-5.362l.011.03C54.4,97.423,63.1,86.215,74.622,71.41a98.091,98.091,0,0,1-6.314-16.771l-2.843,3.723L56.228,70.4,51.754,76.28c-.591.767-1.116,1.5-1.677,2.247-.25.344-.5.685-.745,1.02q-3.671,5.036-6.787,9.5c-3.118,4.452-5.816,8.5-7.936,11.948-.976,1.559-1.837,2.852-2.6,4.034-.091.157-.2.3-.28.443a79.415,79.415,0,0,0-4.686,7.87c-1.166,2.348-2.494,5.255-4.174,9.358-.619,1.581-1.193,3.165-1.68,4.727-.327,1.07-.619,2.1-.88,3.132-.313,1.312-.58,2.582-.786,3.841a46.685,46.685,0,0,0-.294,14.434A39.878,39.878,0,0,0,34.364,174.99c.357.275.712.55,1.075.8,7.2,5.307,14.648,7.658,22.873,7.122,1.078-.066,2.175-.2,3.272-.346.2-.025.4-.041.591-.074.41-.074.822-.176,1.215-.269A44.782,44.782,0,0,0,69.24,180.7c6.38-2.106,13.224-5.615,20.945-10.7a.322.322,0,0,0,.093-.06c.11-.066.226-.151.338-.217,4.823-3.231,13.216-9.283,23.866-17.291.872-.652,1.741-1.3,2.648-1.983.36-.283.74-.564,1.108-.866,2.244-1.675,4.622-3.462,7.029-5.321,2.134-1.625,4.314-3.325,6.586-5.043.971-.765,1.961-1.51,2.975-2.293,4.875-3.77,10-7.746,15.248-11.893C111.711,119.5,90.648,98.6,79.335,80.047" transform="translate(32.893 95.608)" fill="#70c4b6"/>
            <path id="Trazado_79" data-name="Trazado 79" d="M303.286,20.646c-7.634-7.315-19.661-13.821-32.156-17.368a80.943,80.943,0,0,0-47.569.591c-14.327,4.73-27.083,13.713-37.9,26.7-16.331,19.642-59.058,71.658-72.422,87.958l-.041-.173-2.3,3.011c-.935,1.152-1.532,1.881-1.7,2.068a2.75,2.75,0,0,0-.267.374l-3.069,4.122v.019l-6.415,8.387L84.926,155.247l-8.725.847c-.03-.011-.682.038-.982.058-2.06.115-4.356.247-6.759.377-12.726.649-21.429,1.171-26.008,2.249-2.134.511-4.144,1.07-6,1.68a45.922,45.922,0,0,0-11.519,5.519c-5.788,3.921-9.63,8.307-12.044,13.79-2.354,5.3-5.766,13.724-8.486,20.5-1.474,3.611-2.742,6.756-3.545,8.689a10.845,10.845,0,0,0,2.09,11.67,10.95,10.95,0,0,0,11.412,2.942l.063-.028.055-.025c3.5-1.2,10.477-3.693,16.012-5.736,1.49,1.29,2.951,2.577,4.367,3.822.745.63,1.452,1.246,2.134,1.862l-3.182,5.255L13.169,262.44,4.4,276.778l15.234.619L8.17,308.442.514,329.214,21.077,321l28.978-11.494-.3,14.164,15.49-9.7,27.669-17.3,8.4-5.28c0,.008,0,.008.03.044,1.765,2.093,3.528,4.169,5.192,6.088-2.178,4.771-4.683,10.249-6.077,13.3a10.939,10.939,0,0,0,13.4,14.868l.217-.074.253-.107c1.369-.517,2.75-1.045,4.119-1.57,8.651-3.311,17.64-6.712,26.352-10.881,5.464-2.61,8.706-6.949,10.908-10.436a54.581,54.581,0,0,0,8.17-24.707c.594-7.117,1.947-23.1,1.947-23.1l.751-8.962c9.657-7.386,20-15.459,30.4-23.679l22.111-17.5c36.078-28.939,69.892-58.266,91.432-80.421A61.648,61.648,0,0,0,328.447,78.7c-.456-25.472-13.851-47.2-25.161-58.057M47.935,215.05c-.269.828-.564,1.68-.833,2.516a6.61,6.61,0,0,1-.269.817,1.194,1.194,0,0,1-.181.421c0-.011-.223-.19-.467-.41a1.16,1.16,0,0,1-.179-.149c-.154-.132-.3-.256-.407-.36a.735.735,0,0,0-.157-.132c-1.056-.954-2.137-1.884-3.212-2.8-2.764-2.425-5.538-4.834-8.244-7.306,0-.014-.014-.022-.03-.044a2.454,2.454,0,0,0-2.772-.586.55.55,0,0,0-.159.055c-.03.005-.058.025-.1.033-.907.355-1.972.745-3.074,1.152-1.51.539-3.143,1.144-4.818,1.749-1.928.693-3.869,1.394-5.7,2.049-.83.286-1.614.566-2.379.839-1.012.366-1.958.7-2.764.973-.324.124-.63.228-.929.33l-.022,0a1.03,1.03,0,0,1-1.078-.272,1.083,1.083,0,0,1-.267-.932,1.852,1.852,0,0,1,.038-.223c2.409-5.681,8.45-21.044,11.97-28.991a20.058,20.058,0,0,1,3.448-5.293,28.732,28.732,0,0,1,5.12-4.345,31.141,31.141,0,0,1,6.041-3.157c1-.418,2.007-.806,3.03-1.147.621-.2,1.221-.368,1.818-.55.489-.154.979-.278,1.482-.407.63-.179,1.246-.349,1.873-.489.756-.182,1.727-.327,2.89-.479,5.043-.676,13.491-1.127,21.108-1.515,2.5-.135,4.925-.247,7.078-.4.115.005.344-.011.564-.025.137-.014.3-.038.415-.049a.871.871,0,0,0,.2-.011L77,165.9l.047-.008v.014c0,.08-.113.209-.223.33a.519.519,0,0,0-.055.055c-.107.135-.247.261-.344.393-.03.052-.049.085-.074.137-.082.093-.132.151-.168.2-.423.487-.817.99-1.248,1.493-.159.162-.3.352-.465.523-.459.58-.935,1.147-1.394,1.724q-5.214,6.4-9.729,13.213c-2.45,3.748-4.776,7.578-6.866,11.519-.619,1.138-1.21,2.3-1.787,3.457a138.318,138.318,0,0,0-6.759,16.1M154.98,266.186c-.349,4.023-.7,8.15-.932,10.953a44.438,44.438,0,0,1-6.668,20.217,20.445,20.445,0,0,1-4.578,5.387.442.442,0,0,1-.135.11c0,.019-.036.019-.036.047a11.988,11.988,0,0,1-2.065,1.248c-2.434,1.152-4.87,2.255-7.334,3.289-6.231,2.689-12.545,5.1-18.864,7.5-1.193.47-2.368.913-3.553,1.367l-.063.014a1.007,1.007,0,0,1-.753-.044.885.885,0,0,1-.33-.236.977.977,0,0,1-.286-.709,1.1,1.1,0,0,1,.1-.457c1.345-2.951,3.743-8.244,5.843-12.844.9-1.947,1.749-3.8,2.434-5.271.366-.775.027-1.248-.429-1.771,0-.017-.016-.017-.036-.049-.151-.182-.346-.4-.5-.583-2.362-2.742-4.683-5.486-7.026-8.222-.179-.209-.33-.415-.5-.6-.129-.143-.278-.305-.4-.448s-.256-.344-.4-.536c-.454-.586-.973-1.251-.973-1.268.038-.014.113-.033.173-.052.165-.063.338-.162.481-.2,3.294-1.094,6.49-2.376,9.611-3.74.1-.047.162-.074.253-.113,3.3-1.488,6.534-3.1,9.74-4.859.143-.08.28-.176.443-.25,1.149-.643,2.31-1.323,3.462-2.021,1.738-1.031,3.47-2.084,5.164-3.184.121-.088.258-.187.41-.278,3.316-2.167,6.718-4.493,10-7.048a68.718,68.718,0,0,0,8.753-7.32.019.019,0,0,1,.019-.019l.014-.005s-.514,5.783-1.034,12M273.206,48.293a11.388,11.388,0,0,1-5.428,3.742,11.26,11.26,0,0,1-8.863-.8,40.412,40.412,0,0,0-4.144-2.057c-.753-.269-1.589-.547-2.417-.869-.819-.223-1.716-.454-2.615-.7-.462-.069-.929-.157-1.386-.225a13.662,13.662,0,0,0-1.455-.223,24.9,24.9,0,0,0-3.033-.17,29.346,29.346,0,0,0-6.732.679c-.594.143-1.2.247-1.809.412-.616.184-1.229.357-1.864.553s-1.257.423-1.9.649-1.18.47-1.787.69l-.451.181-.583.267c-.385.176-.756.349-1.158.55l-.586.264c-.063.033.286-.159.113-.06l-.049.019-.088.055-.2.1-.756.407a16.737,16.737,0,0,0-1.677,1.028c-.294.2-.583.36-.88.586-.322.225-.63.459-.932.679a83.132,83.132,0,0,0-7.622,6.393c-2.6,2.4-5.233,4.994-7.818,7.708-1.32,1.369-2.615,2.753-3.9,4.158-1.273,1.422-2.579,2.89-3.831,4.3-2.665,3.028-5.357,6.116-8.068,9.215-5.453,6.168-10.944,12.429-16.449,18.693-18.886,21.443-37.75,42.894-53.157,60.408,9.052,17.14,27.7,38.39,66.246,42.754.632.074,6.993.432,10.768.652L183,220.654c0-.011-.014-.011-.014-.011-5.269,4.147-10.386,8.123-15.264,11.89-1.015.784-2,1.532-2.975,2.3-2.274,1.719-4.452,3.415-6.583,5.043-2.406,1.859-4.785,3.644-7.034,5.321-.366.3-.745.58-1.1.863-.907.69-1.779,1.331-2.648,1.985-10.653,8.007-19.031,14.079-23.852,17.3a2.613,2.613,0,0,0-.355.209.285.285,0,0,1-.093.058c-7.722,5.093-14.563,8.6-20.943,10.708a45.232,45.232,0,0,1-5.849,1.521c-.4.094-.806.193-1.215.267-.192.036-.393.052-.594.077-1.094.146-2.192.278-3.272.347-8.225.536-15.674-1.818-22.87-7.122-.366-.256-.718-.531-1.078-.8a39.9,39.9,0,0,1-15.141-26.156,46.6,46.6,0,0,1,.3-14.434c.2-1.257.47-2.53.784-3.839.261-1.037.555-2.062.877-3.132.489-1.562,1.028-3.149,1.686-4.73,1.68-4.1,2.973-7.009,4.171-9.355a79.452,79.452,0,0,1,4.688-7.873c.082-.14.187-.286.28-.443.767-1.18,1.625-2.472,2.6-4.031,2.12-3.445,4.815-7.5,7.936-11.948q3.106-4.463,6.787-9.5c.247-.335.492-.676.745-1.02.561-.753,1.083-1.479,1.677-2.249l4.471-5.874,9.239-12.041,2.843-3.726a.308.308,0,0,0-.033-.1l11.01-14.448a67.253,67.253,0,0,0,1.567,8.343,99.582,99.582,0,0,0,3.333,10.686c13.716-17.64,30-38.588,46.285-59.547C168.5,88.6,173.615,82.008,178.65,75.519c2.5-3.22,4.991-6.432,7.452-9.6,1.328-1.7,2.582-3.292,3.861-4.919,1.309-1.595,2.585-3.157,3.9-4.7q3.935-4.661,8.051-8.989a110.694,110.694,0,0,1,8.8-8.3c.4-.319.786-.654,1.185-.976s.861-.649,1.27-.973c.88-.627,1.661-1.27,2.709-1.884.5-.3.946-.61,1.455-.921l.385-.214.187-.1.077-.063c-.113.063.275-.137.275-.137l.536-.3c.41-.2.77-.415,1.136-.608l.575-.3.7-.341c.935-.451,1.884-.935,2.8-1.312s1.8-.764,2.689-1.133c.927-.335,1.851-.643,2.725-.976.924-.305,1.856-.566,2.777-.839a51.741,51.741,0,0,1,21.248-1.378c1.57.311,3.094.586,4.584.927,1.438.393,3.374.811,4.71,1.207,6.525,1.65,11.555,6.415,12.517,9.36a11.168,11.168,0,0,1-2.046,10.254" transform="translate(0 0)"/>
            <path id="Trazado_80" data-name="Trazado 80" d="M210.065,12.122c-1.337-.4-3.272-.814-4.713-1.207-1.488-.341-3.011-.616-4.584-.927a51.724,51.724,0,0,0-21.245,1.378c-.924.272-1.853.533-2.777.839-.874.33-1.8.641-2.728.976q-1.332.553-2.687,1.133c-.913.377-1.867.858-2.8,1.309l-.7.341-.575.305c-.363.192-.726.4-1.133.608l-.561.3s-.363.2-.25.138l-.083.063-.182.1-.39.212c-.5.313-.957.621-1.452.921-1.045.616-1.826,1.257-2.706,1.886-.412.324-.888.652-1.27.971-.4.324-.787.66-1.185.979a111.168,111.168,0,0,0-8.8,8.3q-4.116,4.335-8.051,8.992c-1.317,1.54-2.593,3.1-3.9,4.7-1.282,1.628-2.533,3.215-3.858,4.919-2.467,3.168-4.955,6.38-7.452,9.6-5.038,6.49-10.152,13.081-15.286,19.658C94.4,99.58,78.126,120.528,64.41,138.168a100.407,100.407,0,0,1-3.335-10.686,67.733,67.733,0,0,1-1.565-8.343L48.5,133.587a.35.35,0,0,1,.03.1,97.953,97.953,0,0,0,6.314,16.774c-11.527,14.8-20.225,26.013-24.014,30.872l-.011-.03a3.436,3.436,0,0,0,3.795,5.365,3.3,3.3,0,0,0,1.518-1l.027.014c3.781-4.3,12.215-13.87,23.4-26.585,11.313,18.553,32.376,39.457,70.739,44.987l.033.008,15.693-12.322c-3.776-.22-10.139-.577-10.768-.652C96.7,186.758,78.063,165.5,69.01,148.368c15.4-17.514,34.268-38.965,53.151-60.408,5.511-6.264,11-12.528,16.452-18.693,2.714-3.1,5.406-6.187,8.068-9.215,1.251-1.405,2.56-2.874,3.833-4.3s2.579-2.788,3.9-4.16c2.582-2.711,5.216-5.3,7.818-7.7a83.1,83.1,0,0,1,7.62-6.393c.3-.223.613-.454.935-.682.294-.225.586-.385.88-.583a16.731,16.731,0,0,1,1.677-1.028l.756-.407.2-.1.088-.055.052-.019c.17-.1-.176.093-.113.06l.586-.267c.4-.2.773-.371,1.158-.547l.583-.267.451-.182c.6-.22,1.144-.481,1.787-.69.641-.226,1.262-.454,1.9-.649s1.246-.368,1.862-.553c.616-.165,1.215-.269,1.812-.412a29.178,29.178,0,0,1,6.732-.679,24.848,24.848,0,0,1,3.03.171,13.039,13.039,0,0,1,1.457.223c.456.069.924.154,1.386.225.9.25,1.8.481,2.612.7.828.322,1.666.6,2.42.869a40.087,40.087,0,0,1,4.141,2.057,11.4,11.4,0,0,0,16.339-13.2c-.965-2.945-5.992-7.711-12.517-9.36" transform="translate(52.672 16.556)" fill="#fff"/>
          </g>
        </g>
      </g>
    </g>
  </g>
</svg>
